<svg width="190" height="32" viewBox="0 0 190 32" fill="none" xmlns="http://www.w3.org/2000/svg">
<mask id="mask0_140_44" style="mask-type:luminance" maskUnits="userSpaceOnUse" x="0" y="0" width="190" height="32">
<path d="M189.267 0H0.663574V32H189.267V0Z" fill="white"/>
</mask>
<g mask="url(#mask0_140_44)">
<mask id="mask1_140_44" style="mask-type:luminance" maskUnits="userSpaceOnUse" x="0" y="0" width="190" height="32">
<path d="M189.267 0H0.663574V32H189.267V0Z" fill="white"/>
</mask>
<g mask="url(#mask1_140_44)">
<path d="M74.6206 3.50239C74.6206 1.9221 75.9025 0.632812 77.4902 0.632812C79.0705 0.632812 80.3598 1.91473 80.3598 3.50239C80.3045 5.08268 78.971 6.31671 77.387 6.26145C75.8841 6.2062 74.6795 5.00164 74.6206 3.50239Z" fill="#191825" fill-opacity="0.5"/>
</g>
<mask id="mask2_140_44" style="mask-type:luminance" maskUnits="userSpaceOnUse" x="0" y="0" width="190" height="32">
<path d="M189.267 0H0.663574V32H189.267V0Z" fill="white"/>
</mask>
<g mask="url(#mask2_140_44)">
<path d="M119.845 22.6191C119.845 21.0278 121.127 19.7422 122.703 19.7422C124.291 19.7422 125.577 21.0278 125.577 22.6191C125.577 24.2068 124.291 25.4924 122.703 25.4924C121.127 25.4924 119.845 24.2031 119.845 22.6191Z" fill="#191825" fill-opacity="0.5"/>
</g>
<mask id="mask3_140_44" style="mask-type:luminance" maskUnits="userSpaceOnUse" x="0" y="0" width="190" height="32">
<path d="M189.267 0H0.663574V32H189.267V0Z" fill="white"/>
</mask>
<g mask="url(#mask3_140_44)">
<path d="M27.5913 21.3775C25.1269 21.3775 23.4067 19.4178 23.4067 16.6145C23.4067 13.815 25.1232 11.8553 27.5913 11.8553C30.0704 11.8553 31.8091 13.815 31.8091 16.6145C31.8054 19.462 30.1109 21.3775 27.5913 21.3775ZM27.5913 7.67061C22.3715 7.67061 18.5811 11.4316 18.5811 16.6145C18.5811 21.7975 22.3752 25.5585 27.5913 25.5585C32.8368 25.5585 36.6384 21.7975 36.6384 16.6182C36.6384 11.4316 32.8295 7.67061 27.5913 7.67061ZM69.0731 17.064C68.8926 16.714 68.6605 16.3862 68.3916 16.0988L68.2332 15.9331L68.3989 15.7747C68.6384 15.5205 68.8852 15.2221 69.1173 14.8759L73.7255 8.02424H68.13L64.6674 13.384C64.4722 13.675 64.078 13.8113 63.4849 13.8113H62.6929V3.67751C62.6929 1.65149 61.4331 1.37891 60.0665 1.37891H57.7311L57.7347 25.2933H62.6893V18.1249H63.1534C63.717 18.1249 64.1001 18.1911 64.2806 18.4969L67.0139 23.6577C67.7801 25.0575 68.5389 25.2969 69.9682 25.2969H73.7771L70.9444 20.6224L69.0731 17.064ZM93.1421 7.63377C90.6188 7.63377 89.0091 8.7536 88.1102 9.70399L87.8119 10.0097L87.705 9.59716C87.4398 8.58047 86.5484 8.02792 85.2038 8.02792H82.9826L82.9973 25.2969H87.9224V17.3402C87.9224 16.5593 88.0218 15.8889 88.2281 15.27C88.777 13.4061 90.3057 12.242 92.2138 12.242C93.7499 12.242 94.3541 13.0524 94.3541 15.1521V22.6742C94.3541 24.4607 95.1792 25.3006 96.9731 25.3006H99.3123L99.3012 14.3159C99.3012 9.93606 97.1684 7.63377 93.1421 7.63377ZM77.5529 8.02424H75.2174L75.2321 21.3775V25.2933H77.7223L77.8107 25.2969L78.9747 25.2933H80.1277V25.2896H80.1388L80.1498 10.6507C80.1425 8.88253 79.2989 8.02424 77.5529 8.02424ZM46.9269 21.3775C44.4625 21.3775 42.7422 19.4178 42.7422 16.6145C42.7422 13.815 44.4625 11.8553 46.9269 11.8553C49.4023 11.8553 51.1447 13.815 51.1447 16.6145C51.141 19.462 49.4465 21.3775 46.9269 21.3775ZM46.9269 7.67061C41.7034 7.67061 37.9092 11.4316 37.9092 16.6145C37.9092 21.7975 41.7034 25.5585 46.9269 25.5585C52.1613 25.5585 55.9739 21.7975 55.9739 16.6182C55.9739 11.4316 52.165 7.67061 46.9269 7.67061Z" fill="#191825" fill-opacity="0.5"/>
</g>
</g>
<mask id="mask4_140_44" style="mask-type:luminance" maskUnits="userSpaceOnUse" x="0" y="0" width="190" height="32">
<path d="M189.267 0H0.663574V32H189.267V0Z" fill="white"/>
</mask>
<g mask="url(#mask4_140_44)">
<mask id="mask5_140_44" style="mask-type:luminance" maskUnits="userSpaceOnUse" x="0" y="0" width="190" height="32">
<path d="M189.227 0.628906H0.663574V31.9585H189.227V0.628906Z" fill="white"/>
</mask>
<g mask="url(#mask5_140_44)">
<mask id="mask6_140_44" style="mask-type:luminance" maskUnits="userSpaceOnUse" x="0" y="0" width="190" height="32">
<path d="M189.267 0H0.663574V32H189.267V0Z" fill="white"/>
</mask>
<g mask="url(#mask6_140_44)">
<path d="M152.456 21.3749C149.992 21.3749 148.271 19.4152 148.271 16.6119C148.271 13.8123 149.992 11.8526 152.456 11.8526C154.935 11.8526 156.674 13.8123 156.674 16.6119C156.674 19.4594 154.976 21.3749 152.456 21.3749ZM152.456 7.66797C147.233 7.66797 143.438 11.429 143.438 16.6119C143.438 21.7948 147.225 25.5558 152.456 25.5558C157.694 25.5558 161.503 21.7948 161.503 16.6156C161.503 11.429 157.691 7.66797 152.456 7.66797Z" fill="#191825" fill-opacity="0.5"/>
</g>
<mask id="mask7_140_44" style="mask-type:luminance" maskUnits="userSpaceOnUse" x="0" y="0" width="190" height="32">
<path d="M189.267 0H0.663574V32H189.267V0Z" fill="white"/>
</mask>
<g mask="url(#mask7_140_44)">
<path d="M109.678 20.6118C106.985 20.6118 106.031 18.2653 106.031 16.0662C106.031 15.0937 106.278 11.9368 109.428 11.9368C110.99 11.9368 113.071 12.3862 113.071 16.2246C113.067 19.853 111.222 20.6118 109.678 20.6118ZM115.624 7.98054C114.688 7.98054 113.97 8.35259 113.609 9.03406L113.476 9.29929L113.248 9.09669C112.452 8.40784 111.026 7.59375 108.717 7.59375C104.112 7.59375 101.014 11.049 101.014 16.1988C101.014 21.3412 104.223 24.9328 108.812 24.9328C110.378 24.9328 111.619 24.5644 112.599 23.8203L112.975 23.5367V24.0155C112.975 26.3252 111.483 27.5961 108.779 27.5961C107.461 27.5961 106.267 27.2756 105.468 26.9846C104.425 26.6678 103.81 26.933 103.39 27.9755L102.996 28.9406L102.443 30.3514L102.786 30.5319C104.517 31.4529 106.772 31.998 108.805 31.998C112.997 31.998 117.893 29.8541 117.893 23.8129L117.907 7.96949H115.624" fill="#191825" fill-opacity="0.5"/>
</g>
</g>
</g>
<mask id="mask8_140_44" style="mask-type:luminance" maskUnits="userSpaceOnUse" x="0" y="0" width="190" height="32">
<path d="M189.267 0H0.663574V32H189.267V0Z" fill="white"/>
</mask>
<g mask="url(#mask8_140_44)">
<mask id="mask9_140_44" style="mask-type:luminance" maskUnits="userSpaceOnUse" x="0" y="0" width="190" height="32">
<path d="M189.267 0H0.663574V32H189.267V0Z" fill="white"/>
</mask>
<g mask="url(#mask9_140_44)">
<path d="M9.25757 21.1754L5.24605 21.1717V16.3829C5.24605 15.3552 5.64389 14.8284 6.51692 14.7032H9.2502C11.1989 14.7032 12.4587 15.9335 12.466 17.9227C12.466 19.9671 11.2357 21.1754 9.25757 21.1754ZM5.24605 8.25307V6.99325C5.24605 5.88815 5.7102 5.36508 6.73794 5.29877H8.78974C10.5468 5.29877 11.6004 6.3523 11.6004 8.11309C11.6004 9.45763 10.8784 11.0232 8.85236 11.0232H5.24605V8.25307ZM14.3705 13.0345L13.6485 12.6256L14.2784 12.0841C15.0188 11.4542 16.2455 10.0286 16.2455 7.57159C16.2455 3.81057 13.3317 1.38672 8.81921 1.38672H3.08743C1.75026 1.43461 0.678309 2.52865 0.663574 3.86582V25.2016H8.92604C13.9432 25.2016 17.1774 22.472 17.1774 18.2432C17.1774 15.974 16.1276 14.0254 14.3705 13.0345Z" fill="#191825" fill-opacity="0.5"/>
</g>
<mask id="mask10_140_44" style="mask-type:luminance" maskUnits="userSpaceOnUse" x="0" y="0" width="190" height="32">
<path d="M189.267 0H0.663574V32H189.267V0Z" fill="white"/>
</mask>
<g mask="url(#mask10_140_44)">
<path d="M183.495 7.68728C181.439 7.69096 179.491 8.63766 178.209 10.2511L177.852 10.7005L177.572 10.1959C176.658 8.53084 175.092 7.69096 172.904 7.69096C170.617 7.69096 169.081 8.96551 168.366 9.72803L167.902 10.2327L167.721 9.56595C167.464 8.60819 166.609 8.08143 165.32 8.08143H163.249L163.227 25.2842H167.928V17.6884C167.928 17.0217 168.009 16.366 168.175 15.6771C168.624 13.8427 169.858 11.8682 171.932 12.0635C173.206 12.1887 173.833 13.1759 173.833 15.0804V25.2805H178.566V17.6847C178.566 16.8522 178.644 16.226 178.831 15.6072C179.207 13.8537 180.5 12.0561 182.5 12.0561C183.948 12.0561 184.486 12.8739 184.486 15.0804V22.7645C184.486 24.4995 185.259 25.2805 186.998 25.2805H189.208L189.212 14.2995C189.227 9.90853 187.293 7.68728 183.495 7.68728ZM140.716 19.3092C140.702 19.324 138.679 21.4605 136.016 21.4605C133.589 21.4605 131.139 19.9723 131.139 16.6496C131.139 13.7801 133.04 11.7725 135.762 11.7725C136.646 11.7725 137.648 12.0893 137.806 12.6197L137.828 12.7081C138.035 13.4633 138.724 13.9827 139.501 13.979L142.076 13.9827V11.7283C142.076 8.75554 138.3 7.68359 135.755 7.68359C130.318 7.68359 126.376 11.4667 126.376 16.6791C126.376 21.8878 130.277 25.6709 135.655 25.6709C140.322 25.6709 142.857 22.6024 142.882 22.5767L143.015 22.4109L140.974 19.0256L140.716 19.3092Z" fill="#191825" fill-opacity="0.5"/>
</g>
</g>
</svg>
