<svg width="114" height="32" viewBox="0 0 114 32" fill="none" xmlns="http://www.w3.org/2000/svg">
<path d="M54.3416 25.0383H50.8266C50.8044 25.0383 50.8044 25.0383 50.7933 25.0271L47.7677 21.3342L44.7422 25.0271C44.731 25.0383 44.7199 25.0383 44.7088 25.0383H41.8946C41.8723 25.0383 41.8612 25.0271 41.8501 25.016C41.8501 25.0049 41.8501 24.9827 41.8612 24.9715L46.3217 19.4988L41.9168 14.0818C41.9057 14.0595 41.9057 14.0484 41.9057 14.0262C41.9168 14.015 41.928 14.0039 41.9391 14.0039H45.4541C45.4652 14.0039 45.4763 14.015 45.4874 14.0262L48.1459 17.3187L50.8489 14.0262C50.86 14.015 50.8711 14.0039 50.8823 14.0039H53.741C53.7521 14.0039 53.7743 14.015 53.7855 14.0262C53.7966 14.0484 53.7855 14.0595 53.7743 14.0818L49.6031 19.0984L54.3861 24.9715C54.3972 24.9827 54.3972 25.0049 54.3972 25.016C54.375 25.0383 54.3639 25.0383 54.3416 25.0383Z" fill="#191825" fill-opacity="0.5"/>
<path d="M73.3512 15.9384C71.7939 15.9384 70.7372 16.8839 70.4257 18.519H75.7204V18.4078C75.7204 17.1063 74.7527 15.9384 73.3512 15.9384ZM78.4457 20.2098C78.4345 20.2209 78.4234 20.232 78.4123 20.232H70.3701C70.537 22.1007 71.7494 23.1686 73.7182 23.1686C74.9307 23.1686 76.221 22.757 78.0341 21.7893C78.0675 21.767 78.1008 21.8004 78.1008 21.8338V24.3032C78.1008 24.3254 78.0897 24.3365 78.0786 24.3365C76.3878 25.0484 74.686 25.5378 73.3512 25.5378C69.8918 25.5378 67.3779 23.0128 67.3779 19.5424C67.3779 16.0719 69.8918 13.5469 73.3512 13.5469C76.5102 13.5469 78.5346 15.6714 78.5346 18.5969C78.5346 19.0752 78.4568 20.1764 78.4457 20.2098Z" fill="#191825" fill-opacity="0.5"/>
<path d="M94.7747 11.7112C93.7848 11.7112 92.9839 10.9215 92.9839 9.95373C92.9839 8.95263 93.7848 8.14062 94.7747 8.14062C95.7647 8.14062 96.5656 8.95263 96.5656 9.95373C96.5656 10.9215 95.7647 11.7112 94.7747 11.7112ZM93.3287 25.037C93.2953 25.037 93.2842 25.0259 93.2842 24.9925V14.036C93.2842 14.0138 93.2953 13.9915 93.3176 13.9915H96.2208C96.243 13.9915 96.2542 14.0138 96.2542 14.036V24.9925C96.2542 25.0259 96.2319 25.037 96.2097 25.037H93.3287Z" fill="#191825" fill-opacity="0.5"/>
<path d="M59.6582 23.391C59.1354 23.391 58.6015 23.3132 57.9786 23.1574L57.9897 16.1275C58.7128 15.8939 59.3357 15.7938 59.9586 15.7938C61.9719 15.7938 63.3178 17.2732 63.3178 19.4867C63.3178 21.856 61.8829 23.391 59.6582 23.391ZM60.448 13.5469C59.6249 13.5469 58.8017 13.6915 57.9341 13.9918H55.0421C55.0198 13.9918 54.9976 14.0141 54.9976 14.0363V32.0005C55.8652 31.8782 56.933 31.5667 57.9786 30.8326V25.371C58.6905 25.4711 59.28 25.5378 59.8473 25.5378C63.8072 25.5378 66.3656 23.1686 66.3656 19.4979C66.3656 15.994 63.9296 13.5469 60.448 13.5469Z" fill="#191825" fill-opacity="0.5"/>
<path d="M88.0452 22.4771C87.1442 22.9554 86.3322 23.1779 85.5758 23.1779C83.785 23.1779 82.706 21.9098 82.706 19.7852C82.706 17.3381 84.0742 15.7475 86.1987 15.7475C86.7883 15.7475 87.3556 15.8921 88.0452 16.2035V22.4771ZM88.0452 8.1947V13.9232C87.1998 13.6785 86.4546 13.5673 85.6982 13.5673C82.2499 13.5673 79.6582 16.159 79.6582 19.6073C79.6582 23.0332 81.9496 25.5249 85.1086 25.5249C86.1987 25.5249 87.2221 25.2468 88.4234 24.635V25.625C89.2132 25.4693 90.1253 25.1578 91.0263 24.5127V7.01562C90.1475 7.13798 89.1019 7.43831 88.0452 8.1947Z" fill="#191825" fill-opacity="0.5"/>
<path d="M106.321 22.4579C105.442 22.9584 104.697 23.2031 104.03 23.2031C102.105 23.2031 100.96 21.9351 100.96 19.8105C100.96 17.3967 102.317 15.7727 104.33 15.7727C104.864 15.7727 105.52 15.9841 106.321 16.4068V22.4579ZM109.302 13.8595C109.302 13.7928 109.247 13.7372 109.18 13.7372H106.833C106.766 13.7372 106.699 13.7928 106.699 13.8595V14.26H106.644C105.565 13.7817 104.63 13.5703 103.729 13.5703C100.481 13.5703 97.9341 16.2622 97.9341 19.7104C97.9341 23.192 100.214 25.5279 103.607 25.5279C104.508 25.5279 105.676 25.4612 106.766 24.2154V25.628C107.534 25.4612 108.446 25.1386 109.302 24.5157V13.8595Z" fill="#191825" fill-opacity="0.5"/>
<path d="M33.8633 22.3002H41.1491C41.0378 23.1122 40.7598 24.0688 40.1369 25.0365H32.5619C31.6386 25.0365 30.8711 24.3135 30.7821 23.4125C30.7821 23.4014 30.771 23.3902 30.771 23.368V8.99663C30.771 8.9855 30.7821 8.97438 30.7821 8.96326C30.8711 8.05114 31.6386 7.32812 32.5619 7.32812H41.138C41.0267 8.14013 40.7486 9.11898 40.1146 10.0867H33.8633V14.0021H40.059C40.0812 14.0021 40.1035 14.0244 40.1035 14.0466V16.7607C40.1035 16.783 40.0812 16.8052 40.059 16.8052H33.8633V22.3002Z" fill="#191825" fill-opacity="0.5"/>
<path d="M24.7422 25.2685C24.0192 25.2685 23.5742 24.7012 23.5742 24.0115C23.5742 23.2774 24.0859 22.7546 24.7422 22.7546C25.3874 22.7546 25.899 23.2662 25.899 24.0115C25.899 24.7568 25.3874 25.2685 24.7422 25.2685ZM24.7422 22.6211C24.0081 22.6211 23.374 23.1773 23.374 24.0115C23.374 24.8013 23.9413 25.4019 24.7422 25.4019C25.4652 25.4019 26.0992 24.8458 26.0992 24.0115C26.0992 23.1773 25.4763 22.6211 24.7422 22.6211Z" fill="#191825" fill-opacity="0.5"/>
<path d="M24.4194 23.9027V23.391H24.7642C24.9422 23.391 25.1424 23.4133 25.1424 23.6246C25.1424 23.8805 24.9533 23.8916 24.742 23.8916C24.7309 23.9027 24.4194 23.9027 24.4194 23.9027ZM25.3871 23.658C25.3871 23.3243 25.1869 23.1797 24.7865 23.1797H24.1636V24.8259H24.4305V24.1252H24.6864L25.1091 24.8259H25.4205L24.9645 24.1029C25.2092 24.0807 25.3871 23.9583 25.3871 23.658Z" fill="#191825" fill-opacity="0.5"/>
<path d="M111.705 15.8159C110.982 15.8159 110.537 15.2486 110.537 14.559C110.537 13.8248 111.048 13.302 111.705 13.302C112.35 13.302 112.861 13.8137 112.861 14.559C112.861 15.3042 112.35 15.8159 111.705 15.8159ZM111.705 13.1797C110.97 13.1797 110.336 13.7359 110.336 14.5701C110.336 15.3599 110.904 15.9605 111.705 15.9605C112.428 15.9605 113.062 15.4044 113.062 14.5701C113.062 13.7247 112.428 13.1797 111.705 13.1797Z" fill="#191825" fill-opacity="0.5"/>
<path d="M111.371 14.4463V13.9457H111.716C111.893 13.9457 112.094 13.968 112.094 14.1793C112.094 14.4351 111.905 14.4463 111.693 14.4463H111.371ZM112.35 14.2127C112.35 13.879 112.149 13.7344 111.749 13.7344H111.126V15.3806H111.393V14.6799H111.649L112.071 15.3806H112.383L111.927 14.6576C112.16 14.6354 112.35 14.513 112.35 14.2127Z" fill="#191825" fill-opacity="0.5"/>
<path d="M15.343 10.0759L14.8202 8.58534L10.3263 2.58985L11.1272 2.38963L18.8579 9.07476L23.4074 7.77333C23.9413 7.63985 24.5531 7.60648 25.0092 7.60648C23.5854 4.52531 20.9603 1.98919 17.512 0.765622C10.6934 -1.67039 3.18514 1.9002 0.760253 8.72994C0.00386563 10.8434 -0.162985 13.0236 0.148469 15.0925L11.0382 11.3106L15.343 10.0759Z" fill="#191825" fill-opacity="0.5"/>
<path d="M25.4986 8.78516C25.0982 9.04099 24.5087 9.38582 23.9303 9.57491L19.3697 10.8763L16.333 20.6426L15.5432 20.8985L16.1884 13.4458L15.8325 11.8997L11.5611 13.1233L0.259766 15.7595C1.16076 20.0976 4.2308 23.8907 8.71351 25.4813C15.5432 27.9173 23.0404 24.3467 25.4764 17.517C26.522 14.5915 26.4553 11.5215 25.4986 8.78516Z" fill="#191825" fill-opacity="0.5"/>
<path d="M15.8216 11.8894L16.1776 13.4355L15.5324 20.8882L16.3222 20.6323L19.3588 10.866L23.9194 9.56459C24.4978 9.37549 25.0874 9.04179 25.4878 8.77483C25.3432 8.37439 25.1875 7.98507 25.0095 7.59576C24.5423 7.59576 23.9417 7.618 23.4077 7.76261L18.8583 9.06404L11.1276 2.37891L10.3267 2.57913L14.8094 8.57461L15.3322 10.0651L11.0275 11.2998L0.137695 15.0818C0.171065 15.3042 0.215559 15.5378 0.260052 15.7603L11.5503 13.1018L15.8216 11.8894Z" fill="white"/>
</svg>
