<svg width="174" height="32" viewBox="0 0 174 32" fill="none" xmlns="http://www.w3.org/2000/svg">
<path d="M99.8119 31.14L113.116 1.03163C113.326 0.57475 113.08 0.181833 112.568 0.181833H103.248C102.975 0.197332 102.711 0.285015 102.483 0.435924C102.255 0.586832 102.071 0.795556 101.95 1.04077L88.8102 31.14C88.6184 31.606 88.8651 31.9898 89.3676 31.9898H98.5144C99.0261 31.9898 99.6109 31.606 99.8119 31.14ZM147.519 23.035L168.17 0.190971H144.02L138.555 8.99048H148.031L127.042 31.999H152.6L162.121 23.035H147.519ZM59.1405 0.181833H43.1496C42.6756 0.209305 42.2172 0.361515 41.8209 0.623061C41.4245 0.884606 41.1043 1.2462 40.8927 1.67126L28.3102 30.5095C27.9447 31.3319 28.3924 31.999 29.2879 31.999H37.2102C38.1057 31.999 39.1291 31.3319 39.4763 30.5187L43.0674 22.3405H46.7864C47.9469 22.2674 48.4403 22.6969 47.8007 24.0401L45.0411 30.5095C44.6939 31.3319 45.1325 31.999 46.028 31.999H53.9503C54.4262 31.974 54.8869 31.8229 55.2851 31.5612C55.6833 31.2994 56.0047 30.9365 56.2164 30.5095L59.8166 22.1852C60.9497 19.4805 59.3141 17.3879 56.9383 17.2783C59.0399 16.5199 60.9771 14.4274 61.8452 12.5267L63.7093 8.14069C65.9571 3.0419 64.358 0.11787 59.1405 0.190971M54.4803 9.28289L52.5065 13.6232C52.0497 14.6649 51.3918 14.7472 50.7339 14.7198H46.2838L49.2627 7.95793H53.53C54.5716 8.0219 54.8366 8.39654 54.4803 9.28289ZM90.2631 0.172696H73.322C72.9827 0.190378 72.6542 0.297824 72.3701 0.484053C72.0859 0.670282 71.8563 0.928617 71.7047 1.23266L58.7384 30.9299C58.4917 31.5147 58.7932 31.9807 59.4329 31.9807H77.571C83.3185 31.8985 86.6172 30.6283 89.2397 24.5427L91.1038 20.4856C92.5658 17.0133 91.1312 15.5056 88.3899 15.067C90.6743 14.3634 92.3922 12.2161 93.1323 10.3246L94.6492 7.10814C96.5132 2.81346 94.9599 0.11787 90.254 0.172696M81.9479 20.0927L80.7966 22.4045C80.2209 24.0127 79.2158 24.4513 77.7994 24.4696H72.4996L75.0399 18.4845H80.3397C81.8383 18.5941 82.4231 18.9596 81.9479 20.0927ZM84.9907 9.43823L84.1958 11.2657L84.077 11.5033C83.945 11.8845 83.6906 12.2114 83.3534 12.4329C83.0162 12.6543 82.6152 12.758 82.2129 12.7278H77.6167L79.7183 7.88483H84.4059C85.2466 7.93966 85.3836 8.48791 84.9907 9.43823ZM116.049 0.181833L112.111 8.99048H117.731C118.115 8.99048 118.297 9.26461 118.142 9.62098L108.319 31.3685C108.155 31.7157 108.346 31.999 108.73 31.999H118.736C119.12 31.999 119.558 31.7157 119.714 31.3593L129.144 9.62098C129.234 9.43813 129.371 9.28256 129.541 9.17017C129.712 9.05779 129.909 8.99262 130.112 8.98135H135.878L141.306 0.181833H116.049ZM33.0343 11.019L34.277 8.30516C36.7807 2.58502 35.1268 0.127008 30.2108 0.190971H18.3776C13.5073 0.127008 9.45017 2.86829 7.20232 7.96707L3.54728 18.2926H0.0932617L6.69975 27.2109L17.6192 18.2926H14.8414L18.0487 10.8454C18.5695 9.62098 19.465 9.03617 20.4244 8.99048H22.2885C22.7271 9.00876 23.0286 9.14582 23.2023 9.33771L28.9955 4.46737L33.0343 11.019Z" fill="#191825" fill-opacity="0.5"/>
<path d="M6.45312 29.8327L1.59192 23.674L1.33606 24.2222C-0.920924 29.3576 -0.546282 31.9161 4.32406 31.9892H16.0019C20.8357 31.9161 25.0664 29.3576 27.3325 24.2222L30.8048 16.2634H33.9116L28.6118 7.33594L17.7837 16.2634H20.7535L18.5604 21.3347C18.0305 22.413 17.2264 22.9978 16.3674 23.0343H14.814L6.45312 29.8327Z" fill="#191825" fill-opacity="0.5"/>
<path d="M172.017 0.000121574C172.447 0.000121574 172.812 0.155461 173.114 0.457002C173.415 0.758543 173.571 1.12405 173.571 1.55351C173.571 1.97384 173.415 2.33935 173.114 2.65003C172.812 2.96071 172.447 3.10691 172.017 3.10691C171.813 3.11005 171.61 3.07111 171.421 2.99251C171.233 2.91391 171.062 2.79733 170.921 2.65003C170.619 2.33935 170.464 1.97384 170.464 1.55351C170.464 1.13318 170.619 0.749405 170.921 0.457002C171.063 0.310133 171.233 0.193842 171.422 0.115274C171.61 0.0367063 171.813 -0.00248031 172.017 0.000121574ZM172.017 2.8145C172.185 2.81829 172.352 2.78783 172.507 2.72499C172.663 2.66214 172.804 2.56823 172.922 2.449C173.042 2.33132 173.136 2.19029 173.199 2.03467C173.261 1.87905 173.292 1.71216 173.287 1.54438C173.29 1.37812 173.26 1.21297 173.197 1.05902C173.134 0.905057 173.04 0.765513 172.922 0.648891C172.804 0.52922 172.663 0.435021 172.508 0.372144C172.352 0.309268 172.185 0.279057 172.017 0.283387C171.851 0.279772 171.686 0.310346 171.532 0.373218C171.378 0.436089 171.238 0.529918 171.122 0.648891C170.875 0.895607 170.756 1.19715 170.756 1.54438C170.756 1.89161 170.875 2.20228 171.122 2.449C171.368 2.69571 171.67 2.8145 172.017 2.8145ZM172.812 2.3759H172.447L171.99 1.71799H171.798V2.3759H171.469V0.703717H171.99C172.173 0.703717 172.319 0.749405 172.428 0.831644C172.538 0.92302 172.602 1.04181 172.602 1.19715C172.602 1.39818 172.492 1.55351 172.282 1.63575L172.812 2.3759ZM171.807 1.44386H171.981C172.191 1.44386 172.291 1.36162 172.291 1.20629C172.291 1.05095 172.2 0.977845 171.99 0.977845H171.807V1.44386Z" fill="#191825" fill-opacity="0.5"/>
</svg>
