<svg width="212" height="32" viewBox="0 0 212 32" fill="none" xmlns="http://www.w3.org/2000/svg">
<path d="M22.974 19.2256C24.7957 24.1611 30.2862 26.6875 35.2232 24.87C40.1574 23.0399 42.6894 17.5549 40.8606 12.618C39.0375 7.67534 33.5554 5.15318 28.6114 6.9749C23.6716 8.80367 21.1494 14.2858 22.974 19.2256Z" fill="white"/>
<path d="M10.7811 25.4216C16.0472 25.4216 20.3162 21.1527 20.3162 15.8866C20.3162 10.6205 16.0472 6.35156 10.7811 6.35156C5.51508 6.35156 1.24609 10.6205 1.24609 15.8866C1.24609 21.1527 5.51508 25.4216 10.7811 25.4216Z" fill="white"/>
<path d="M12.4066 15.7841C12.4066 16.7557 11.6172 17.5521 10.6456 17.5521C9.66983 17.5521 8.88184 16.7571 8.88184 15.7841C8.88184 14.8139 9.66983 14.0273 10.6456 14.0273C11.6172 14.0288 12.4066 14.8139 12.4066 15.7841Z" fill="#191825" fill-opacity="0.5"/>
<path d="M33.6553 15.7841C33.6553 16.7557 32.8687 17.5521 31.8971 17.5521C30.9185 17.5521 30.1333 16.7571 30.1333 15.7841C30.1333 14.8139 30.9185 14.0273 31.8971 14.0273C32.8701 14.0288 33.6553 14.8139 33.6553 15.7841Z" fill="#191825" fill-opacity="0.5"/>
<path d="M5.40625 15.7868C5.40625 18.6775 7.75753 21.0246 10.6483 21.0246C13.5319 21.0246 15.8818 18.6775 15.8818 15.7868C15.8818 12.9031 13.5305 10.5547 10.6483 10.5547C7.75894 10.5575 5.40625 12.9046 5.40625 15.7868ZM7.21243 15.7868C7.21243 13.8959 8.75735 12.358 10.6511 12.358C12.542 12.358 14.0784 13.9001 14.0784 15.7868C14.0784 17.6834 12.542 19.2241 10.6511 19.2241C8.75735 19.2255 7.21243 17.6862 7.21243 15.7868Z" fill="#191825" fill-opacity="0.5"/>
<path d="M26.6582 15.7868C26.6582 18.6775 29.0067 21.0246 31.896 21.0246C34.7811 21.0246 37.1281 18.6775 37.1281 15.7868C37.1281 12.9031 34.7811 10.5547 31.896 10.5547C29.0081 10.5575 26.6582 12.9046 26.6582 15.7868ZM28.4644 15.7868C28.4644 13.8959 30.0051 12.358 31.9002 12.358C33.7911 12.358 35.3262 13.9001 35.3262 15.7868C35.3262 17.6834 33.7911 19.2241 31.9002 19.2241C30.0022 19.2255 28.4644 17.6862 28.4644 15.7868Z" fill="#191825" fill-opacity="0.5"/>
<path d="M28.2444 5.97362C29.3487 5.56691 30.4784 5.3692 31.594 5.33814C28.555 3.97821 25.115 3.28906 21.3035 3.28906C17.5217 3.28906 14.0308 3.99374 10.9932 5.29295C16.4908 5.40168 20.9603 9.70742 21.3459 15.1344C21.4391 13.8889 21.7441 12.6575 22.2821 11.491C23.467 8.91095 25.5866 6.95367 28.2444 5.97362Z" fill="white"/>
<path d="M40.4426 9.6225C40.9397 7.49434 42.5171 5.36477 42.5171 5.36477L35.4378 5.36054C31.4682 2.79743 26.647 1.4375 21.3061 1.4375C15.7619 1.4375 10.7557 2.82991 6.80869 5.41137L0.172852 5.41702C0.172852 5.41702 1.7319 7.52258 2.23605 9.63521C0.945314 11.3905 0.1785 13.5469 0.1785 15.8883C0.1785 21.7334 4.93614 26.4882 10.784 26.4882C14.1266 26.4882 17.1077 24.9305 19.0523 22.5101L21.3104 25.8908L23.5854 22.4804C24.6092 23.7824 25.9296 24.8387 27.4774 25.5547C30.0518 26.7381 32.9368 26.8553 35.5932 25.8739C41.0795 23.8446 43.8968 17.7284 41.8675 12.2492C41.5116 11.2846 41.0258 10.4077 40.4426 9.6225ZM21.3047 3.28887C25.1162 3.28887 28.5563 3.97801 31.5953 5.33935C30.4782 5.36901 29.3499 5.56813 28.2456 5.97201C25.5879 6.95206 23.4682 8.90935 22.2862 11.4852C21.7481 12.6516 21.4445 13.883 21.3499 15.1286C20.9616 9.7044 16.492 5.39866 10.9944 5.2871C14.0306 3.99213 17.5201 3.28887 21.3047 3.28887ZM17.7912 20.6248C16.2689 22.8702 13.6931 24.3501 10.7811 24.3501C6.11248 24.3501 2.31372 20.5485 2.31372 15.8898C2.31372 11.2183 6.11389 7.42373 10.7811 7.42373C15.4484 7.42373 19.2472 11.2183 19.2472 15.8898C19.2472 16.175 19.1921 16.4433 19.1624 16.7187C19.0212 18.1492 18.5608 19.4894 17.7912 20.6248ZM34.8518 23.8672C32.7307 24.6467 30.4302 24.5605 28.3755 23.613C26.9181 22.9379 25.7248 21.8802 24.8648 20.5669C24.5146 20.0359 24.2067 19.4725 23.9794 18.8553C23.721 18.1577 23.5924 17.4389 23.5232 16.7145C23.382 15.2458 23.5953 13.7602 24.2279 12.3833C25.1769 10.3286 26.8659 8.7653 28.987 7.98013C33.3676 6.3646 38.2438 8.61138 39.8622 12.9905C41.4791 17.3697 39.2309 22.246 34.8518 23.8672Z" fill="#191825" fill-opacity="0.5"/>
<path d="M55.0245 2.98674L51.9205 4.05859C51.9205 4.05859 51.9205 7.77545 51.9205 8.10872C51.5957 8.10872 48.4805 8.10872 48.4805 8.10872V10.8243C48.4805 10.8243 51.4997 10.8243 51.8273 10.8243C51.8273 11.1774 51.8273 19.5431 51.8273 19.5431C51.8273 23.6865 53.2381 25.3867 56.7078 25.3867C57.5876 25.3867 58.4279 25.278 59.2709 25.0478L59.4079 25.0139L59.3698 22.198L59.1325 22.2884C58.4505 22.5243 57.9167 22.6401 57.5043 22.6401C55.8746 22.6401 55.2702 21.7235 55.2702 19.2494C55.2702 19.2494 55.2702 11.176 55.2702 10.8286C55.6007 10.8286 59.2399 10.8286 59.2399 10.8286V8.10872C59.2399 8.10872 55.6021 8.10872 55.2702 8.10872C55.2702 7.77262 55.2702 2.90625 55.2702 2.90625L55.0245 2.98674Z" fill="#191825" fill-opacity="0.5"/>
<path d="M65.7571 10.8586C65.7571 9.90253 65.7571 8.10765 65.7571 8.10765H62.6079V25.0863H66.0508V16.5638C66.0508 12.991 67.5519 11.0224 70.2718 11.0224C70.6658 11.0224 71.0485 11.0817 71.5145 11.213L71.7376 11.2766L71.8506 7.92548L70.3692 7.8125C68.3738 7.81109 66.7625 8.88858 65.7571 10.8586Z" fill="#191825" fill-opacity="0.5"/>
<path d="M77.9871 8.10622H74.7278V25.0863H78.1707V8.10622H77.9871ZM74.3945 3.13111C74.3945 4.26085 75.3153 5.17736 76.4422 5.17736C77.5719 5.17736 78.4899 4.26085 78.4899 3.13111C78.4899 2.00278 77.5719 1.08204 76.4422 1.08204C75.3153 1.07921 74.3945 2.00278 74.3945 3.13111Z" fill="#191825" fill-opacity="0.5"/>
<path d="M90.3297 7.70703C87.9671 7.70703 85.9802 8.82548 84.6556 10.8604C84.6556 10.047 84.6556 8.10244 84.6556 8.10244H81.5078V31.9979H84.9535C84.9535 31.9979 84.9535 23.6534 84.9535 22.7355C86.1962 24.4258 87.9784 25.355 90.197 25.355C94.5493 25.355 97.3609 21.7836 97.3609 16.2691C97.3609 11.1485 94.5338 7.70703 90.3297 7.70703ZM89.368 22.5702C86.6439 22.5702 84.9521 20.2415 84.9521 16.5007C84.9521 12.8897 86.7371 10.5568 89.4993 10.5568C92.1613 10.5568 93.7528 12.7683 93.7528 16.4654C93.7542 20.2288 92.0723 22.5702 89.368 22.5702Z" fill="#191825" fill-opacity="0.5"/>
<path d="M107.424 7.71094C105.318 7.71094 103.474 8.10917 101.782 8.92259L101.678 8.97343L101.714 11.9122L101.985 11.7597C103.602 10.8559 105.133 10.3941 106.527 10.3941C109.021 10.3941 110.453 11.8232 110.453 14.3214C110.453 14.3214 110.453 14.3934 110.453 14.4668C110.149 14.4668 108.483 14.4668 108.483 14.4668C102.814 14.4668 99.6963 16.5201 99.6963 20.2426C99.6963 23.2322 101.947 25.3222 105.17 25.3222C107.541 25.3222 109.375 24.3902 110.683 22.6363C110.683 23.3184 110.683 25.0878 110.683 25.0878H113.794V14.8128C113.793 10.1032 111.65 7.71094 107.424 7.71094ZM110.447 17.921C110.447 20.8456 108.688 22.7379 105.965 22.7379C104.297 22.7379 103.134 21.6421 103.134 20.0746C103.134 18.0142 105.104 16.883 108.679 16.883C108.679 16.883 110.152 16.883 110.45 16.883C110.447 17.1471 110.447 17.921 110.447 17.921Z" fill="#191825" fill-opacity="0.5"/>
<path d="M128.415 0C128.415 0 128.415 9.46584 128.415 10.412C127.146 8.64678 125.379 7.71192 123.11 7.71192C118.897 7.71192 116.067 11.1802 116.067 16.3347C116.067 21.6445 118.938 25.3529 123.041 25.3529C125.471 25.3529 127.366 24.2768 128.68 22.1853C128.68 23.0312 128.68 25.0888 128.68 25.0888H131.863V0H128.415ZM123.933 22.5031C121.309 22.5031 119.68 20.2154 119.68 16.5324C119.68 12.8452 121.324 10.4614 123.871 10.4614C126.715 10.4614 128.413 12.7294 128.413 16.5324C128.415 20.1659 126.662 22.5031 123.933 22.5031Z" fill="#191825" fill-opacity="0.5"/>
<path d="M147.247 8.10547L142.365 17.9102L137.852 8.10547H133.973L142.293 25.0855L150.84 8.10547H147.247Z" fill="#191825" fill-opacity="0.5"/>
<path d="M155.852 8.10622H152.591V25.0863H156.038V8.10622H155.852ZM152.262 3.13111C152.262 4.26085 153.182 5.17736 154.31 5.17736C155.444 5.17736 156.358 4.26085 156.358 3.13111C156.358 2.00278 155.441 1.08204 154.31 1.08204C153.183 1.07921 152.262 2.00278 152.262 3.13111Z" fill="#191825" fill-opacity="0.5"/>
<path d="M160.075 12.4613C160.075 14.8493 161.716 16.1075 164.747 17.5903C166.658 18.5294 167.656 19.083 167.656 20.4062C167.656 21.7633 166.43 22.6403 164.527 22.6403C163.181 22.6403 161.687 22.2618 160.207 21.5346L159.955 21.4103L159.844 24.4041L159.958 24.4465C161.373 25.0099 162.86 25.2853 164.397 25.2853C168.608 25.2853 171.326 23.2786 171.326 20.1732C171.326 17.5847 169.605 16.2699 166.621 14.8775C164.436 13.8509 163.52 13.2535 163.52 12.1647C163.52 11.1338 164.539 10.4616 166.115 10.4616C167.539 10.4616 168.928 10.778 170.243 11.405L170.492 11.5194L170.641 8.59051L170.504 8.55097C169.078 8.12731 167.67 7.91408 166.314 7.91408C162.583 7.90843 160.075 9.73861 160.075 12.4613Z" fill="#191825" fill-opacity="0.5"/>
<path d="M182.069 7.71094C176.895 7.71094 173.682 11.1185 173.682 16.5978C173.682 22.0799 176.898 25.4818 182.069 25.4818C187.267 25.4818 190.494 22.0785 190.494 16.5978C190.494 11.1199 187.264 7.71094 182.069 7.71094ZM182.099 22.673C179.239 22.673 177.318 20.2186 177.318 16.5653C177.318 12.8922 179.239 10.4294 182.099 10.4294C185.005 10.4294 186.882 12.84 186.882 16.5653C186.882 20.2765 185.008 22.673 182.099 22.673Z" fill="#191825" fill-opacity="0.5"/>
<path d="M196.846 10.8586C196.846 9.90253 196.846 8.10765 196.846 8.10765H193.697V25.0863H197.14V16.5638C197.14 12.991 198.632 11.0224 201.356 11.0224C201.748 11.0224 202.127 11.0817 202.585 11.213L202.818 11.2766L202.925 7.92548L201.45 7.8125C199.463 7.81109 197.854 8.88858 196.846 10.8586Z" fill="#191825" fill-opacity="0.5"/>
<path d="M211.138 7.35641C211.703 7.92834 212 8.68809 212 9.50575C212 10.3601 211.681 11.1255 211.093 11.689C210.48 12.2708 209.721 12.5829 208.927 12.5829C208.098 12.5829 207.335 12.2567 206.742 11.6438C206.176 11.0563 205.855 10.305 205.855 9.50292C205.855 8.68527 206.182 7.89304 206.792 7.29145C207.364 6.73081 208.099 6.42578 208.927 6.42578C209.776 6.42719 210.548 6.74917 211.138 7.35641ZM207.173 7.69392C206.676 8.19101 206.41 8.83072 206.41 9.50575C206.41 10.1638 206.656 10.7696 207.131 11.2526C207.607 11.7497 208.238 12.018 208.914 12.018C209.572 12.018 210.205 11.7652 210.694 11.2907C211.174 10.829 211.438 10.1963 211.438 9.50433C211.438 8.8279 211.192 8.2136 210.726 7.74334C210.237 7.24626 209.618 6.985 208.927 6.985C208.246 6.985 207.649 7.2279 207.173 7.69392ZM208.983 7.75182C209.947 7.75182 210.441 8.10063 210.441 8.73187C210.441 9.16682 210.182 9.50433 209.723 9.64273L210.48 11.1241H209.455L208.824 9.78677H208.557V11.1241H207.628V7.75041L208.983 7.75182ZM208.55 9.23743H208.873C209.287 9.23743 209.486 9.09198 209.486 8.80248C209.486 8.47203 209.277 8.33646 208.824 8.33646H208.55V9.23743Z" fill="#191825" fill-opacity="0.5"/>
</svg>
